<svg xmlns="http://www.w3.org/2000/svg" width="1000" height="209"><path fill="#295E9A" d="M36 51c4.014 1.594 6.635 4.442 9.563 7.5 2.686 2.784 5.195 5.339 8.437 7.5a1751.495 1751.495 0 0 1-6.431 28.375 7010.906 7010.906 0 0 0-3.535 15.116c-.612 2.616-1.228 5.23-1.85 7.843a1923.37 1923.37 0 0 0-2.676 11.44l-.855 3.544-.75 3.281-.677 2.877c-.263 2.934.156 4.098 1.774 6.524a115.57 115.57 0 0 0 5.563 5.25l1.537 1.39c2.145 2.34 2.145 2.34 4.9 3.36l.41-1.802c1.41-6.18 2.822-12.361 4.235-18.541l1.58-6.923c.756-3.314 1.513-6.628 2.271-9.941l.714-3.135.667-2.911.585-2.564C62 107 62 107 63 104c3.96 1.584 6.546 4.352 9.438 7.375 3.933 4.085 3.933 4.085 8.472 7.477L83 121c-.403 7.735-2.526 15.328-4.238 22.86l-.484 2.135c-.843 3.721-1.69 7.44-2.542 11.16-.877 3.832-1.736 7.669-2.592 11.506-.664 2.962-1.34 5.921-2.02 8.88-.323 1.413-.641 2.827-.954 4.243-.438 1.977-.896 3.95-1.355 5.922l-.771 3.4c-1.15 3.187-2.488 4.717-5.044 6.894-3.816-1.298-6.07-2.75-8.813-5.688-3.175-3.378-6.553-6.403-10.052-9.436-4.24-3.726-8.313-7.632-12.386-11.537-3.657-3.492-7.339-6.872-11.257-10.07l-2.132-1.8a104.347 104.347 0 0 0-4.065-3.249c-1.96-1.679-3.096-2.93-4.295-5.22.096-2.556.096-2.556.67-5.47l.625-3.236a622.936 622.936 0 0 1 3.498-15.442l.809-3.407c.858-3.608 1.721-7.214 2.585-10.82 1.182-4.94 2.36-9.88 3.54-14.82l.87-3.645c1.613-6.769 3.18-13.544 4.676-20.34l.945-4.244a710.209 710.209 0 0 0 1.601-7.437l.716-3.217.575-2.7C32.202 53.496 33.544 52.535 36 51ZM88 11c3.887 1.373 6.535 4.16 9.5 6.938l3.23 3.007 1.654 1.548c2.459 2.293 4.945 4.554 7.428 6.82 3.338 3.052 6.658 6.121 9.961 9.21l1.956 1.828a720.984 720.984 0 0 1 3.877 3.663c3.501 3.315 7.076 6.24 10.957 9.111 1.91 1.74 1.91 1.74 3.437 3.875.05 2.328.05 2.328-.515 5.04-.216 1.069-.43 2.137-.653 3.237L138 69l-.923 4.259c-1.096 4.996-2.244 9.98-3.393 14.964l-1.263 5.51c-.876 3.823-1.754 7.646-2.635 11.469-1.128 4.902-2.253 9.805-3.376 14.708a20297.133 20297.133 0 0 1-3.847 16.768c-.577 2.518-1.157 5.035-1.737 7.553l-.518 2.262c-1.904 8.238-1.904 8.238-5.308 10.507-4.824-.517-7.842-3.897-11.313-7l-1.994-1.637-1.869-1.675-1.716-1.489c-3.277-6.504 1.208-17.375 2.806-24.035.51-2.127 1.012-4.255 1.512-6.383a5462.88 5462.88 0 0 1 4.296-18.127c.885-3.71 1.76-7.424 2.63-11.138.33-1.41.667-2.817 1.006-4.225a832.26 832.26 0 0 0 1.394-5.9l.806-3.383c.454-3.09.411-5.052-.558-8.008-1.98-2.105-3.882-3.946-6.063-5.813l-1.72-1.521A465.724 465.724 0 0 0 100 53c-3.195 11.655-6.009 23.373-8.726 35.147-.52 2.25-1.044 4.499-1.567 6.748l-.477 2.08c-1.117 4.8-1.117 4.8-2.23 7.025-4.797-2.209-8.434-5.475-12.375-8.938l-2.309-1.86C70.1 91.226 68.54 89.54 67 87c.018-2.322.018-2.322.605-4.873l.644-2.943L69 76l1.465-6.8c.56-2.505 1.122-5.01 1.687-7.513.15-.659.298-1.318.451-1.997.786-3.473 1.574-6.945 2.365-10.417.813-3.577 1.615-7.156 2.413-10.736.62-2.768 1.25-5.533 1.882-8.298.445-1.958.88-3.92 1.314-5.88l.829-3.593.715-3.163C83.3 14.113 84.747 12.627 88 11Z"></path><path fill="#152F4E" d="M479.063 56.176c2.472.041 2.472.041 4.937.824 3.416 3.587 5.638 7.869 8 12.188.723 1.262 1.45 2.523 2.18 3.782a736.702 736.702 0 0 1 4.522 7.957c3.357 5.975 6.851 11.87 10.33 17.775 1.063 1.81 2.118 3.622 3.171 5.437l1.992 3.427 1.72 2.967c2.898 4.902 6.012 9.673 9.085 14.467l.025-2.492c.077-7.74.165-15.48.263-23.22.05-3.98.096-7.96.134-11.939.037-3.838.083-7.677.136-11.515.019-1.467.034-2.933.045-4.4.017-2.05.046-4.099.078-6.148l.04-3.54C526 59 526 59 528 57c2.715-.328 5.252-.13 8 0 1.865 1.865 1.127 4.534 1.136 7.015l-.007 2.62.006 2.744c.004 3.01.001 6.018-.002 9.027a9323.39 9323.39 0 0 1-.002 19.348 8085.83 8085.83 0 0 0 .003 16.839c.004 4.3.002 8.599 0 12.898 0 2.07 0 4.14.002 6.21.003 2.889-.001 5.776-.007 8.664l.007 2.62c-.022 5.9-.022 5.9-1.136 7.015-3.231.938-5.78 1.01-9 0-3.377-3.521-5.553-7.745-7.875-12a808.465 808.465 0 0 0-2.16-3.753 846.13 846.13 0 0 1-4.564-8.018c-3.686-6.527-7.555-12.946-11.4-19.38-1.227-2.06-2.45-4.121-3.668-6.185l-1.17-1.977-3.121-5.286c-2.3-3.83-4.675-7.613-7.042-11.401l-1 67c-3.253 1.627-6.392 1.115-10 1-1.865-1.865-1.127-4.534-1.136-7.015l.007-2.62-.006-2.744c-.004-3.01-.001-6.018.002-9.027a9323.39 9323.39 0 0 1 .002-19.348c.006-5.613.003-11.226-.003-16.839-.004-4.3-.002-8.599 0-12.898 0-2.07 0-4.14-.002-6.21-.003-2.889.001-5.776.007-8.664l-.007-2.62c.026-7.162.026-7.162 5.199-7.84ZM731.09 56.867C733 57 733 57 735 58v39l30-1V58c2.245-1.123 3.515-1.134 6-1.125l2.125-.008C775 57 775 57 777 58c.046 11.96.082 23.921.104 35.882.01 5.554.024 11.107.047 16.66.022 5.356.034 10.712.039 16.068.003 2.047.01 4.094.021 6.14.015 2.86.017 5.718.016 8.578l.022 2.585c-.02 5.859-.02 5.859-2.249 8.087-2.715.328-5.252.13-8 0-1-1-1-1-1.114-4.969 0-1.772.006-3.544.016-5.316l.005-2.82c.005-2.986.018-5.972.03-8.958.006-2.018.01-4.037.014-6.056.01-4.96.03-9.92.049-14.881h-31l.07 8.898c.016 2.837.028 5.673.04 8.51.01 1.974.024 3.95.04 5.924.025 2.835.036 5.67.045 8.504l.032 2.686c0 2.16-.104 4.32-.227 6.478-2 2-2 2-3.91 2.23-5.979-.119-5.979-.119-7.09-1.23-.1-2.886-.136-5.748-.13-8.635l-.005-2.744c-.004-3.01-.001-6.018.002-9.027a9323.39 9323.39 0 0 1 .002-19.348c.006-5.613.003-11.226-.003-16.839-.004-4.3-.002-8.599 0-12.898 0-2.07 0-4.14-.002-6.21-.003-2.889.001-5.776.007-8.664l-.007-2.62c.026-7.014.157-7.122 7.226-7.148ZM179 57c2 2 2 2 2.227 5.807 0 1.64-.012 3.28-.032 4.92l-.008 2.614c-.011 2.762-.037 5.523-.062 8.284-.01 1.87-.02 3.74-.027 5.61-.02 4.588-.06 9.176-.098 13.765h31l-.07-8.46c-.016-2.698-.028-5.395-.04-8.093-.01-1.878-.024-3.756-.04-5.634-.025-2.695-.036-5.39-.045-8.086l-.032-2.554c0-2.06.104-4.118.227-6.173 2-2 2-2 5.5-2.25C221 57 221 57 223 59c.194 2.917.262 5.739.243 8.656l.006 2.716c.003 2.97-.007 5.942-.019 8.913v6.172c-.002 4.315-.01 8.63-.024 12.946-.017 5.544-.021 11.088-.02 16.633 0 4.248-.006 8.497-.013 12.746l-.006 6.135c-.002 2.852-.011 5.704-.022 8.556l.002 2.586c-.033 5.827-.033 5.827-1.147 6.941-1.497.098-3 .13-4.5.125l-2.469.008C213 152 213 152 212 151a270.491 270.491 0 0 1-.098-9.285l.005-2.82c.005-2.986.018-5.972.03-8.958.006-2.018.01-4.037.014-6.056.01-4.96.03-9.92.049-14.881h-31l.07 9.117c.016 2.906.028 5.812.04 8.717.01 2.024.024 4.047.04 6.07.025 2.905.036 5.809.045 8.713l.032 2.753v2.547l.014 2.248C181 151 181 151 179 153c-4.053.345-5.548.302-9-2-.302-2.949-.41-5.689-.388-8.64l-.016-2.711c-.013-2.966-.005-5.932.006-8.899a3025.864 3025.864 0 0 1 .007-19.098c.017-5.535.007-11.07-.01-16.605-.012-4.245-.008-8.49 0-12.734.002-2.042 0-4.083-.008-6.125-.007-2.85.004-5.698.02-8.547l-.018-2.576c.026-2.345.026-2.345.407-6.065 3.452-2.302 4.947-2.345 9-2ZM628 57h6c2.846 6.85 5.308 13.751 7.54 20.824.483 1.52.483 1.52.978 3.07 1.04 3.263 2.074 6.528 3.107 9.793a28370.073 28370.073 0 0 0 5.344 16.837c2.075 6.523 4.196 13.03 6.375 19.519l1.447 4.343c.658 1.976 1.32 3.95 2 5.918a495.05 495.05 0 0 1 1.78 5.282l.992 2.908C664 148 664 148 662 152h-9c-.84-2.269-1.672-4.54-2.5-6.813l-.723-1.947C648.73 140.35 648 138.1 648 135h-33l-3 11a240.21 240.21 0 0 1-2 6h-10c-1.553-4.79-.204-8.441 1.371-13.012.565-1.71 1.128-3.42 1.691-5.13l.943-2.833c1.842-5.6 3.583-11.231 5.343-16.857l2.334-7.416c1.195-3.795 2.389-7.59 3.58-11.387C623.808 68.141 623.808 68.141 628 57Zm3 25c-4.513 13.952-8.938 27.91-13 42h26c-3.91-14.028-7.835-28.045-12-42h-1ZM300.563 56.938 303 57c3.35 7.02 5.743 14.148 8.004 21.584 1.078 3.543 2.175 7.08 3.27 10.62l.68 2.203a1714.746 1714.746 0 0 0 6.659 20.995 5142.94 5142.94 0 0 1 1.893 5.875c1.78 5.515 3.579 11.018 5.49 16.489l.88 2.537a302.226 302.226 0 0 0 1.588 4.437c1.329 3.801 1.761 6.383.536 10.26h-10a2854.83 2854.83 0 0 1-2.5-7.375l-.723-2.117C317 137.227 317 137.227 317 135h-33l-2 9c-.886 2.734-1.931 5.329-3 8-1.458.027-2.917.046-4.375.063l-2.46.035C270 152 270 152 268 151c.719-4.015 1.815-7.818 3.038-11.708l.621-1.983a3751.5 3751.5 0 0 1 2.04-6.477l1.433-4.557c1.002-3.191 2.007-6.381 3.013-9.57 1.273-4.035 2.542-8.07 3.81-12.107 8.825-28.093 8.825-28.093 12.69-39.774l.71-2.16c1.892-5.646 1.892-5.646 5.207-5.727ZM300 82c-1.712 5.659-3.421 11.319-5.127 16.98a5865.95 5865.95 0 0 1-1.746 5.78c-.837 2.764-1.67 5.529-2.502 8.295l-.795 2.62-.728 2.426-.646 2.14c-.54 1.779-.54 1.779-.456 3.759h25c-3.343-14.21-7.62-28.078-12-42h-1ZM964.5 57.5l2.203.723c1.77.582 3.534 1.178 5.297 1.777-.614 3.338-1.346 6.022-3 9l-3-.5c-9.857-1.18-20.562-2.457-29 3.5-2.283 1.926-2.853 3.127-3.344 6.043-.29 4.335-.126 6.243 2.348 10 3.217 3.592 7.026 5.134 11.433 6.894 1.612.685 3.223 1.37 4.833 2.06l2.416 1.018c10.76 4.58 20.017 9.002 26.314 19.235 2.137 8.013 2.073 16.382-2 23.75-4.478 6.92-10.92 9.442-18.438 12.313-10.506 2.027-20.585.53-30.023-4.668-4.628-3.21-7.385-6.438-9.539-11.645-.346-2.81-.246-5.146 0-8 1-1 1-1 3.066-1.098l2.496.035 2.504.028L931 128l1.125 3.75c1.725 4.459 3.412 6.214 7.875 8.25 8.285 2.296 16.378 3.047 24.14-1.16 3.574-2.608 5.271-4.875 5.985-9.278.136-4.503-.735-7.678-3.125-11.562-6.27-5.164-13.198-7.669-20.73-10.518-9.307-3.636-18.718-8.157-23.27-17.544-2.63-6.765-2.392-12.491.313-19.188 5.417-8.828 12.32-12.264 22.035-15.27 7.013-1.27 12.537-.246 19.152 2.02ZM900 60l-2 9-3.5-.5c-15.486-1.853-15.486-1.853-29.5 3.5-2.983 3.356-3.374 6.39-3.594 10.84 1.19 4.326 3.906 7.17 7.686 9.386 2.463 1.172 4.949 2.237 7.47 3.274 1.8.779 3.597 1.559 5.395 2.34l2.627 1.124c10.144 4.35 18.385 8.612 24.416 18.224 2.297 8.755 2.07 16.811-2.527 24.726C901.494 148.966 893.29 152.332 885 154c-11.047 1.015-21.665-1.111-30.375-8.297-3.667-3.843-5.417-7.833-6-13.078C849 130 849 130 851 128c2.164-.195 2.164-.195 4.625-.125l2.477.055L860 128l.5 3.688c.898 3.468 1.938 5.178 4.875 7.25 6.881 3.677 14.611 3.87 22.063 1.937 4.171-1.462 6.814-3.33 9.562-6.875 1.55-4.648 1.517-8.478-.063-13.125-5.217-7.742-14.325-10.237-22.667-13.393-9.668-3.777-17.757-8.28-23.372-17.24-2.23-5.568-2-13.113-.023-18.726 1.217-2.066 2.504-3.751 4.125-5.516l1.504-1.672C868.99 52.173 885.195 54.531 900 60ZM409 57c3.126 3.126 2.319 6.973 2.344 11.172l.044 2.773c.047 2.935.08 5.87.112 8.805.041 3.85.095 7.698.156 11.547l.016 2.671c.076 4.694.368 8.673 2.328 13.032 2.154 1.397 2.154 1.397 5 2l3.688 1.188c6.107 1.454 11.871.655 17.75-1.376 3.3-2.335 4.086-4.034 5.562-7.812.45-3.33.488-6.635.512-9.992l.054-2.867c.054-3.005.088-6.01.122-9.016.033-2.044.067-4.089.103-6.133.085-4.997.152-9.994.209-14.992 2.405-1.203 3.95-1.1 6.625-1.063l2.477.028L458 57c.093 10.553.164 21.106.207 31.66.021 4.9.05 9.802.095 14.702.043 4.734.067 9.467.078 14.2.007 1.802.021 3.604.043 5.406.03 2.533.033 5.064.031 7.596l.044 2.237c-.043 5.459-1.503 9.623-4.498 14.199-2.697 2.563-5.47 4.748-9 6-2.125-.125-2.125-.125-4-1-1.531-2.114-2.02-3.388-1.938-6 1.33-2.838 3.462-4.143 5.938-6 1.174-2.349 1.115-3.738 1.098-6.352l-.01-2.578-.026-2.695-.013-2.719c-.012-2.219-.028-4.437-.049-6.656-1.025.478-2.05.956-3.105 1.45-8.295 3.54-18.407 3.486-26.895.55-7.292-3.415-12.277-8.376-15.39-15.9-1.203-4.138-.973-8.353-.903-12.627l.013-2.997c.017-3.138.054-6.276.092-9.413.016-2.137.03-4.273.042-6.409.032-5.218.083-10.436.146-15.654 3.013-1.507 5.683-1.178 9-1ZM798.067 56.87l2.538-.009 2.743.006 2.809-.003c1.961 0 3.922.001 5.883.006 3.014.005 6.027 0 9.04-.007 1.902 0 3.803.002 5.705.004l2.75-.006c6.35.024 6.35.024 7.465 1.139.273 5.736.273 5.736 0 8-2 2-2 2-5.165 2.227-1.343 0-2.687-.012-4.03-.032l-2.144-.008c-2.262-.011-4.524-.037-6.786-.062-1.533-.01-3.065-.02-4.598-.027-3.759-.022-7.518-.057-11.277-.098l.217 3.02.28 4.015.278 3.957c.355 5.671.289 11.328.225 17.008l16 1c1.125 5.625 1.125 5.625-1 9h3l1-7h2c.293 6.055.293 6.055 0 8-3.021 2.014-3.807 2.268-7.23 2.414l-2.193.108-2.764.103L804 110v30l6.71.148c2.142.054 4.284.112 6.425.17 1.49.038 2.98.073 4.47.104 2.14.045 4.279.103 6.418.164l3.904.095C835 141 835 141 837 143c.25 3.5.25 3.5 0 7-2.69 2.69-4.771 2.25-8.426 2.278l-2.668-.012-2.734.005c-1.91.002-3.82-.002-5.73-.01-2.93-.011-5.86 0-8.79.012-1.853 0-3.705-.003-5.558-.007l-2.668.012c-6.196-.048-6.196-.048-8.426-2.278-.188-2.922-.252-5.75-.227-8.672v-2.72c0-2.976.016-5.952.032-8.928l.008-6.18c.008-5.428.028-10.857.05-16.285.02-5.537.03-11.073.04-16.61.02-10.868.055-21.737.097-32.605 2.278-1.14 3.537-1.127 6.067-1.13ZM386 60c-.557 3.344-1.352 6.033-3 9l-1.871-.438c-8.663-1.898-15.716-2.251-24.281.196-2.781 1.87-2.977 4.065-3.848 7.242-.304 2.87-.304 2.87-.275 5.834l-.029 3.408.003 3.637-.013 3.772c-.007 3.298-.004 6.595.002 9.893 0 2.018-.01 4.037-.024 6.055-.025 3.885-.029 7.77-.027 11.655l-.028 3.643.019 3.398-.002 2.98c.445 3.242 1.444 5.1 3.374 7.725 9.385 5.712 19.552 4.075 30 3 .504 1.29 1.003 2.582 1.5 3.875l.844 2.18C389 149 389 149 389 151c-14.852 3.05-27.336 4.58-40.938-3.813-5.32-5.642-7.173-11.392-7.223-19.022l-.03-3.56-.012-3.84-.017-3.96c-.01-2.768-.017-5.535-.02-8.302-.006-3.528-.03-7.056-.058-10.584-.023-3.385-.025-6.769-.03-10.153l-.038-3.814c.02-7.725.275-14.166 5.346-20.378C359.175 52.294 370.483 53.657 386 60ZM555.672 56.855l3.013-.02 3.28-.003 3.344-.01c2.34-.005 4.68-.007 7.019-.007 3.59-.002 7.181-.02 10.772-.04 2.267-.003 4.535-.005 6.802-.005l3.274-.022 3.023.01 2.669-.005C601 57 601 57 603 59c.27 2.688.087 5.291 0 8-5.148.824-10.086 1.056-15.305 1.031l-3.804-.013L581 68l.038 2.224a105194.79 105194.79 0 0 1 .535 31.538 32077.674 32077.674 0 0 1 .275 16.184c.165 9.895.165 9.895.123 14.751.03 3.429.307 5.352 2.029 8.303l2.687 1.875L589 145c-.069 3.994-.131 6.131-3 9-4.931-.352-8.896-3.896-12.25-7.25-5.035-7.912-4.011-17.391-3.945-26.406l.008-4.54c.008-3.958.027-7.917.05-11.876.02-4.049.03-8.098.04-12.147.02-7.927.056-15.854.097-23.781h-20c0-11.12 0-11.12 5.672-11.145ZM252 58l2 1c.023 11.978.04 23.956.052 35.934.005 5.561.012 11.123.023 16.684.011 5.362.017 10.724.02 16.086.002 2.051.005 4.102.01 6.152.008 2.862.009 5.723.009 8.585l.01 2.596c-.01 5.849-.01 5.849-1.124 6.963-1.497.098-3 .13-4.5.125l-2.469.008C244 152 244 152 243 151c-.095-2.86-.126-5.698-.114-8.559v-2.72c0-2.98.009-5.962.016-8.944l.005-6.183c.003-5.437.013-10.874.024-16.31.01-5.543.015-11.087.02-16.63.01-10.884.028-21.77.049-32.654 2.986-1.493 5.709-1.118 9-1Z"></path><path fill="#224E80" d="m36 51 3 1-1 3h-5l-1 2c.313-1.875.313-1.875 1-4l3-2Z"></path><path fill="#25558C" d="M87 98c1.125 3.75 1.125 3.75 0 6-1.938-.813-1.938-.813-4-2l-1-3 5 2v-3Z"></path><path fill="#245287" d="M98 51c2.375.313 2.375.313 5 1l2 3h-3l-2-2-2 2v-4Z"></path><path fill="#152F4E" d="M570 142c2 2 2 2 2.125 5.125L572 150h-2v-8ZM589 121h2v2h-2v-2Z"></path></svg>